<?xml version="1.0" standalone="no"?>
<!DOCTYPE svg PUBLIC "-//W3C//DTD SVG 20010904//EN"
 "http://www.w3.org/TR/2001/REC-SVG-20010904/DTD/svg10.dtd">
<svg version="1.0" xmlns="http://www.w3.org/2000/svg"
 width="300.000000pt" height="80.000000pt" viewBox="0 0 300.000000 80.000000"
 preserveAspectRatio="xMidYMid meet">
<metadata>
Created by potrace 1.10, written by Peter Selinger 2001-2011
</metadata>
<g transform="translate(0.000000,80.000000) scale(0.100000,-0.100000)"
fill="#000000" stroke="none">
<path d="M310 685 c-80 -46 -151 -88 -158 -95 -13 -12 -18 -356 -4 -376 11
-16 307 -184 323 -183 8 0 82 39 164 88 l150 87 6 59 c3 33 4 63 2 68 -2 4
-23 7 -47 7 -39 0 -43 -3 -54 -34 -15 -41 -80 -102 -130 -123 -46 -19 -138
-19 -182 -1 -150 63 -196 247 -92 368 39 47 71 65 136 80 120 27 254 -58 272
-172 6 -38 7 -38 53 -38 l46 0 -2 86 c-1 48 -3 87 -5 89 -24 19 -310 175 -320
174 -7 0 -78 -38 -158 -84z m247 -1 c29 -19 79 -47 110 -63 74 -37 89 -56 92
-109 2 -52 -15 -54 -39 -4 -8 17 -32 51 -52 76 -94 111 -295 114 -393 4 -59
-64 -84 -128 -79 -200 16 -233 299 -343 464 -180 26 26 51 56 57 66 13 23 43
15 43 -12 0 -25 -22 -44 -93 -81 -32 -17 -71 -40 -87 -51 -45 -32 -111 -59
-129 -52 -9 3 -43 22 -76 42 -33 19 -82 47 -108 60 -89 46 -87 40 -87 218 0
86 4 162 8 168 6 9 173 109 252 151 30 16 49 10 117 -33z"/>
<path d="M1035 661 c-117 -53 -159 -194 -88 -295 83 -118 258 -121 338 -6 32
47 32 60 -3 60 -20 0 -35 -9 -50 -30 -84 -113 -262 -51 -262 92 0 73 71 138
149 138 48 0 106 -30 116 -59 3 -12 18 -21 38 -24 41 -6 42 -4 28 32 -39 92
-168 137 -266 92z"/>
<path d="M1360 475 l0 -196 31 3 30 3 0 190 0 190 -30 3 -31 3 0 -196z"/>
<path d="M1820 640 c0 -28 3 -30 35 -30 32 0 35 2 35 30 0 28 -3 30 -35 30
-32 0 -35 -2 -35 -30z"/>
<path d="M2179 663 c0 -5 0 -38 1 -75 1 -71 -5 -81 -34 -49 -9 10 -32 21 -51
24 -145 24 -230 -155 -120 -252 50 -44 94 -49 155 -19 46 23 50 24 50 6 0 -13
7 -18 30 -18 l30 0 0 195 0 195 -30 0 c-16 0 -30 -3 -31 -7z m-26 -184 c45
-48 31 -115 -30 -144 -63 -30 -133 12 -133 80 0 48 15 74 53 90 42 18 76 10
110 -26z"/>
<path d="M416 560 c-34 -11 -82 -54 -102 -92 -38 -72 1 -179 79 -217 71 -34
135 -25 190 27 93 88 70 219 -48 273 -43 20 -74 22 -119 9z m30 -40 c8 0 14 7
14 15 0 8 5 15 10 15 6 0 10 -7 10 -15 0 -21 30 -19 31 3 1 16 2 16 6 0 2 -10
12 -18 20 -18 23 0 53 -30 53 -52 0 -10 7 -18 15 -18 8 0 15 -4 15 -10 0 -5
-7 -10 -15 -10 -8 0 -15 -4 -15 -10 0 -5 7 -10 15 -10 8 0 15 -4 15 -10 0 -5
-7 -10 -15 -10 -20 0 -19 -19 1 -27 15 -5 15 -7 0 -15 -9 -5 -16 -14 -16 -20
0 -19 -32 -48 -52 -48 -10 0 -18 -7 -18 -17 -1 -17 -1 -17 -11 0 -12 21 -29
22 -29 2 0 -8 -4 -15 -10 -15 -5 0 -10 7 -10 15 0 20 -17 19 -29 -2 -10 -17
-10 -17 -11 0 0 9 -8 17 -17 17 -21 0 -53 29 -53 47 0 7 -7 16 -16 20 -15 5
-15 7 0 15 20 11 21 28 1 28 -8 0 -15 5 -15 10 0 6 7 10 15 10 8 0 15 5 15 10
0 6 -7 10 -15 10 -8 0 -15 5 -15 10 0 6 7 10 15 10 8 0 15 8 15 17 0 23 29 53
52 53 10 0 19 8 19 18 1 16 2 16 6 0 2 -10 11 -18 19 -18z"/>
<path d="M378 486 c-26 -20 -26 -156 0 -179 28 -25 163 -24 185 1 21 23 24
161 5 180 -17 17 -168 15 -190 -2z m102 -26 c0 -5 -7 -10 -15 -10 -9 0 -15
-10 -15 -26 0 -14 -4 -23 -10 -19 -5 3 -10 15 -10 26 0 11 -4 17 -10 14 -13
-8 -13 -92 -1 -100 6 -3 35 -2 66 3 49 8 56 7 53 -7 -3 -17 -72 -27 -115 -16
-21 5 -23 11 -23 69 0 34 3 66 7 69 10 11 73 8 73 -3z m59 -42 c-1 -29 -4 -41
-6 -25 -5 34 -33 36 -33 2 0 -14 -5 -25 -11 -25 -6 0 -9 14 -7 32 2 25 9 34
28 39 24 7 24 7 3 8 -31 1 -29 21 2 21 24 0 25 -3 24 -52z"/>
<path d="M1540 543 c-40 -21 -80 -84 -80 -128 0 -43 30 -96 70 -123 29 -19 45
-23 87 -20 30 3 61 12 71 21 24 22 34 22 30 0 -2 -12 5 -17 27 -17 l30 -1 3
138 3 137 -35 0 c-30 0 -33 -3 -29 -21 l6 -22 -30 23 c-42 30 -108 36 -153 13z
m129 -47 c56 -29 67 -102 22 -147 -52 -52 -138 -33 -161 35 -13 41 -2 75 36
105 31 25 64 27 103 7z"/>
<path d="M2362 541 c-47 -30 -72 -77 -72 -135 0 -44 4 -53 44 -92 39 -39 48
-44 89 -44 47 0 97 16 97 32 0 4 5 8 10 8 6 0 10 -7 10 -15 0 -8 6 -15 14 -15
8 0 21 -3 30 -6 14 -5 16 10 16 135 l0 141 -30 0 c-24 0 -30 -4 -30 -22 l0
-21 -25 23 c-35 33 -109 38 -153 11z m122 -41 c31 -11 59 -52 59 -86 0 -86
-103 -126 -164 -65 -47 47 -35 116 26 149 25 14 47 15 79 2z"/>
<path d="M2694 541 c-18 -11 -33 -30 -36 -45 -9 -44 13 -69 82 -97 67 -27 80
-40 60 -64 -21 -25 -69 -19 -82 10 -13 29 -68 37 -68 9 0 -47 53 -84 120 -84
33 0 48 6 71 29 55 55 33 106 -61 140 -52 19 -61 26 -58 44 4 31 52 36 70 8 9
-14 23 -21 45 -21 37 0 37 0 21 35 -24 53 -106 71 -164 36z"/>
<path d="M1820 415 l0 -135 33 0 32 0 0 135 0 135 -32 0 -33 0 0 -135z"/>
<path d="M1549 226 c-8 -8 3 -106 12 -101 10 7 10 105 -1 105 -4 0 -9 -2 -11
-4z"/>
<path d="M1891 180 c0 -27 4 -52 9 -55 6 -4 10 16 10 49 0 69 -17 75 -19 6z"/>
<path d="M1970 174 c0 -34 4 -53 10 -49 6 3 10 17 10 31 0 13 5 24 10 24 6 0
10 -10 10 -23 0 -25 9 -39 20 -32 14 9 -3 68 -21 72 -11 3 -19 12 -19 19 0 8
-4 14 -10 14 -5 0 -10 -25 -10 -56z"/>
<path d="M2208 212 c-7 -26 3 -93 13 -86 12 7 12 91 0 98 -5 3 -11 -2 -13 -12z"/>
<path d="M2330 174 c0 -34 4 -53 10 -49 6 3 10 28 10 56 0 27 -4 49 -10 49 -5
0 -10 -25 -10 -56z"/>
<path d="M2367 223 c-11 -10 -8 -91 3 -98 6 -4 10 15 10 49 0 57 -1 61 -13 49z"/>
<path d="M2399 226 c-7 -7 3 -106 10 -102 4 3 7 25 6 51 -2 43 -7 60 -16 51z"/>
<path d="M950 170 c0 -47 2 -50 25 -50 27 0 34 17 10 26 -8 4 -15 10 -15 15 0
5 7 9 15 9 21 0 19 18 -2 23 -17 4 -17 5 0 6 27 2 20 21 -8 21 -23 0 -25 -3
-25 -50z"/>
<path d="M1930 176 c0 -25 4 -47 9 -50 10 -6 21 61 13 82 -10 27 -22 9 -22
-32z"/>
<path d="M2090 169 c0 -31 4 -48 10 -44 6 3 10 26 10 51 0 24 -4 44 -10 44 -5
0 -10 -23 -10 -51z"/>
<path d="M1019 175 c-1 -14 -2 -29 -3 -35 -1 -5 4 -10 9 -10 6 0 10 10 10 22
0 12 6 23 13 25 8 3 12 -6 12 -26 0 -17 5 -31 10 -31 6 0 10 14 10 30 0 17 5
30 10 30 6 0 10 -11 10 -24 0 -14 5 -28 11 -31 7 -5 9 6 7 31 -3 39 -3 39 -50
42 -45 2 -48 1 -49 -23z"/>
<path d="M1140 151 c0 -28 5 -51 10 -51 6 0 10 7 10 15 0 8 6 12 13 9 19 -7
39 20 35 48 -2 18 -10 24 -35 26 l-33 3 0 -50z m54 21 c8 -13 -11 -35 -23 -28
-16 10 -14 36 3 36 8 0 17 -4 20 -8z"/>
<path d="M1229 179 c-9 -18 -7 -25 9 -41 16 -16 23 -18 41 -9 23 13 28 40 9
59 -19 19 -46 14 -59 -9z m47 -10 c10 -17 -13 -36 -27 -22 -12 12 -4 33 11 33
5 0 12 -5 16 -11z"/>
<path d="M1310 193 c0 -21 19 -63 30 -63 5 0 10 8 10 18 1 15 2 15 15 -2 17
-22 16 -22 33 18 14 32 6 51 -10 23 -9 -18 -10 -18 -24 0 -12 17 -13 17 -14 1
0 -10 -3 -18 -6 -18 -4 0 -13 8 -20 18 -7 9 -14 12 -14 5z"/>
<path d="M1424 174 c-8 -30 16 -60 40 -51 23 9 20 26 -4 20 -11 -3 -20 0 -20
6 0 6 11 11 25 11 27 0 32 9 13 28 -21 21 -47 14 -54 -14z"/>
<path d="M1500 166 c0 -19 5 -38 10 -41 6 -4 10 7 10 24 0 17 5 31 10 31 6 0
10 5 10 10 0 6 -9 10 -20 10 -16 0 -20 -7 -20 -34z"/>
<path d="M1587 193 c-10 -10 -8 -61 2 -68 5 -3 11 6 13 20 4 36 22 36 29 0 5
-24 7 -27 14 -12 13 30 -3 67 -29 67 -12 0 -26 -3 -29 -7z"/>
<path d="M1670 185 c-17 -20 -3 -55 23 -56 17 -1 15 -3 -8 -9 -24 -5 -27 -8
-13 -14 30 -14 51 -2 60 33 5 18 7 40 4 47 -7 18 -50 18 -66 -1z m45 -25 c0
-22 -29 -18 -33 3 -3 14 1 18 15 15 10 -2 18 -10 18 -18z"/>
<path d="M1780 195 c0 -4 22 -57 27 -64 2 -3 10 4 18 15 13 17 14 17 15 2 0
-27 19 -22 30 8 14 37 12 52 -5 30 -14 -18 -15 -18 -21 -1 -7 17 -8 17 -20 0
-12 -17 -14 -17 -20 -2 -5 15 -24 24 -24 12z"/>
<path d="M2130 159 c0 -23 3 -39 8 -35 4 4 7 17 7 29 0 11 6 22 13 24 8 3 12
-6 12 -26 0 -17 5 -31 11 -31 6 0 9 16 7 38 -3 32 -7 37 -30 40 -27 3 -28 1
-28 -39z"/>
<path d="M2251 178 c-5 -13 -6 -28 -4 -35 6 -15 39 -26 53 -18 15 9 2 25 -15
18 -8 -3 -15 0 -15 6 0 6 11 11 25 11 23 0 24 2 15 20 -14 27 -49 26 -59 -2z"/>
<path d="M2434 186 c-10 -27 1 -50 26 -57 24 -7 24 -7 -4 -8 -22 -1 -27 -4
-19 -12 6 -6 21 -9 34 -7 21 3 24 9 27 51 3 47 3 47 -28 47 -17 0 -33 -6 -36
-14z"/>
<path d="M2527 193 c-24 -23 8 -81 38 -69 22 8 18 25 -5 19 -11 -3 -20 0 -20
6 0 6 11 11 25 11 27 0 32 9 13 28 -13 13 -41 16 -51 5z"/>
<path d="M2604 186 c-8 -21 -1 -61 11 -58 5 1 10 12 10 24 0 12 6 23 13 25 8
3 12 -6 12 -28 0 -24 3 -30 11 -22 6 6 9 23 7 39 -2 23 -9 30 -31 32 -17 2
-29 -2 -33 -12z"/>
<path d="M2690 181 c-5 -11 -7 -26 -4 -35 11 -28 64 -32 64 -6 0 6 -10 9 -22
7 -15 -1 -23 3 -23 13 0 9 9 15 23 14 12 0 22 5 22 13 0 20 -48 16 -60 -6z"/>
<path d="M2774 175 c-8 -31 16 -61 40 -52 23 9 20 26 -4 20 -11 -3 -20 0 -20
6 0 6 12 11 26 11 36 0 29 34 -8 38 -22 3 -29 -2 -34 -23z"/>
</g>
</svg>
