<?xml version="1.0" standalone="no"?>
<!DOCTYPE svg PUBLIC "-//W3C//DTD SVG 20010904//EN"
 "http://www.w3.org/TR/2001/REC-SVG-20010904/DTD/svg10.dtd">
<svg version="1.0" xmlns="http://www.w3.org/2000/svg"
 width="186.000000pt" height="49.000000pt" viewBox="0 0 186.000000 49.000000"
 preserveAspectRatio="xMidYMid meet">

<g transform="translate(0.000000,49.000000) scale(0.100000,-0.100000)"
fill="#000000" stroke="none">
<path d="M188 414 l-98 -55 0 -114 0 -114 101 -56 100 -57 97 54 c93 52 97 56
100 91 3 33 1 37 -21 37 -14 0 -32 -11 -46 -31 -72 -97 -208 -91 -262 11 -52
96 19 210 131 210 61 0 109 -31 135 -87 15 -33 25 -43 43 -43 22 0 23 3 20 52
l-3 51 -95 54 c-52 29 -97 53 -100 53 -3 -1 -49 -26 -102 -56z"/>
<path d="M665 413 c-56 -14 -95 -66 -95 -128 0 -53 51 -106 110 -112 50 -5
100 19 120 56 9 18 8 21 -8 21 -11 0 -26 -9 -33 -21 -9 -13 -29 -22 -56 -26
-37 -5 -45 -2 -73 25 -22 22 -30 40 -30 65 0 79 102 118 161 61 39 -37 58 -26
25 13 -32 38 -79 56 -121 46z"/>
<path d="M847 396 c-2 -6 -3 -56 -3 -111 1 -87 3 -100 19 -103 15 -3 17 7 17
111 0 93 -3 114 -15 114 -8 0 -16 -5 -18 -11z"/>
<path d="M1130 390 c0 -5 6 -10 14 -10 8 0 18 5 21 10 3 6 -3 10 -14 10 -12 0
-21 -4 -21 -10z"/>
<path d="M1350 360 c0 -37 -2 -40 -19 -30 -59 31 -131 -6 -133 -68 -2 -66 55
-107 115 -84 19 7 36 8 47 2 25 -13 27 -2 26 115 -1 86 -3 100 -18 103 -15 3
-18 -4 -18 -38z m-22 -56 c29 -20 31 -79 3 -94 -69 -36 -135 36 -81 90 24 24
48 25 78 4z"/>
<path d="M220 315 c-13 -14 -20 -28 -16 -32 6 -7 21 9 29 31 2 5 27 9 56 10
64 0 94 -26 86 -75 -3 -16 -1 -29 5 -29 22 0 10 67 -16 94 -37 37 -110 37
-144 1z"/>
<path d="M949 327 c-70 -54 -38 -157 49 -157 21 0 43 5 49 11 8 8 13 8 17 0 4
-6 14 -11 22 -11 11 0 14 17 14 79 0 76 -12 110 -30 81 -6 -9 -13 -9 -28 -1
-27 14 -73 14 -93 -2z m107 -42 c22 -34 12 -69 -26 -85 -25 -10 -34 -10 -54 4
-33 21 -41 52 -22 81 23 35 79 35 102 0z"/>
<path d="M1449 311 c-40 -40 -36 -93 10 -128 21 -16 83 -16 100 0 11 10 14 10
18 0 3 -7 11 -13 19 -13 11 0 14 18 14 85 0 67 -3 85 -14 85 -8 0 -16 -5 -18
-11 -3 -9 -9 -9 -25 0 -37 19 -73 13 -104 -18z m113 -18 c24 -21 23 -58 -2
-83 -24 -24 -48 -25 -78 -4 -25 17 -31 71 -10 92 17 17 68 15 90 -5z"/>
<path d="M1668 329 c-10 -5 -18 -21 -18 -35 0 -20 9 -29 46 -45 31 -14 44 -26
42 -37 -4 -23 -32 -27 -51 -7 -20 19 -37 19 -37 0 0 -36 86 -48 114 -16 24 26
13 56 -27 72 -48 19 -59 29 -47 44 11 14 50 9 50 -6 0 -5 7 -9 15 -9 22 0 19
27 -4 40 -25 13 -61 12 -83 -1z"/>
<path d="M1130 251 c0 -67 3 -79 15 -75 31 12 34 146 3 152 -16 3 -18 -6 -18
-77z"/>
<path d="M236 301 c-9 -14 -10 -96 -2 -109 8 -13 83 -16 110 -6 19 7 22 94 4
112 -14 14 -104 16 -112 3z m47 -32 c-4 -16 -8 -17 -14 -7 -6 9 -9 7 -9 -9 0
-13 6 -23 13 -23 8 0 7 -3 -3 -9 -10 -7 -1 -11 30 -14 l45 -4 -47 -1 -48 -2 0
45 c0 38 3 45 19 45 14 0 18 -5 14 -21z m55 -15 c2 -26 1 -27 -9 -9 -12 19
-12 19 -20 0 -7 -19 -8 -18 -8 3 -1 12 4 22 10 22 5 0 7 5 3 11 -4 7 -1 10 7
7 8 -2 15 -18 17 -34z"/>
<path d="M190 245 c0 -14 5 -25 11 -25 6 0 9 7 5 15 -3 8 -1 15 5 15 6 0 7 5
4 10 -11 18 -25 10 -25 -15z"/>
<path d="M200 202 c0 -10 43 -52 53 -52 4 0 7 5 7 10 0 6 -7 10 -16 10 -9 0
-18 9 -21 20 -5 19 -23 28 -23 12z"/>
<path d="M362 190 c-7 -11 -19 -20 -27 -20 -8 0 -15 -4 -15 -10 0 -15 44 8 58
31 7 10 9 19 4 19 -4 0 -13 -9 -20 -20z"/>
<path d="M270 154 c0 -8 5 -12 10 -9 6 3 10 10 10 16 0 5 -4 9 -10 9 -5 0 -10
-7 -10 -16z"/>
<path d="M301 154 c0 -11 3 -14 6 -6 3 7 2 16 -1 19 -3 4 -6 -2 -5 -13z"/>
</g>
</svg>
