<?xml version="1.0" encoding="UTF-8"?>
<svg version="1.1" viewBox="0 0 2048 1152" width="1280" height="1280" xmlns="http://www.w3.org/2000/svg">
<path transform="translate(963,22)" d="m0 0h48l18 1 3 1 26 2 27 4 27 5 11 3 8 2 19 5 21 7 16 6 26 10 24 11 13 7 21 12 9 5 11 7 15 10 14 10 18 14 13 11 11 9 14 14 5 4v2h2v2l4 2 7 7 7 8 12 13 11 14 9 11 8 11 12 17 8 13 10 16 8 14 2 2 12-1 18-1h27l38 3 25 4 31 7 9 3 15 4 12 5 18 7 25 12 18 10 23 14 15 11 17 13 13 11 15 14 19 19 18 22 9 12 7 10 14 22 8 14 8 16 11 24 6 17 7 21 6 21 4 18 4 30 2 21v49l-3 33-2 10-2 12-7 28-6 20-12 32-13 28-4 7-16 27-12 17-12 16-12 14-7 8-30 30-10 8-12 10-11 8-10 7-15 9-11 7-10 6-19 9-9 5-16 6-19 7-23 7-25 6-25 4-12 2-25 2h-1103l-22-2-31-5-12-3-7-2-20-6-20-7-20-9-16-8-16-9-10-7-13-9-13-10-11-8v-2l-4-2-7-7-8-7-5-5v-2l-4-2-9-10-8-10-10-13-12-17-8-13-9-16-10-21-4-9-6-15-9-28-6-28-2-12-2-15-1-15v-40l3-31 4-23 6-22 5-17 4-11 4-10 9-20 11-21 10-16 8-12 9-12 11-14 12-13 5-6h2v-2l8-7 8-8 14-11 18-14 15-10 17-10 12-6 15-8 29-11 21-7 31-7 20-3 19-2 19-1 2-10 6-18 8-22 13-30 15-30 12-21 11-17 12-18 12-16 11-14 12-14 12-13 15-16 4-2 2-4 8-7 14-13 14-11 11-9h2v-2l16-11 19-13 16-10 17-10 11-6 19-9 15-7 22-9 16-6 11-4 17-5 18-5 15-4 35-7 30-4 19-1 3-1z" fill="#FEFEFE"/>
<path transform="translate(963,22)" d="m0 0h48l18 1 3 1 26 2 27 4 27 5 11 3 8 2 19 5 21 7 16 6 26 10 24 11 13 7 21 12 9 5 11 7 15 10 14 10 18 14 13 11 11 9 14 14 5 4v2h2v2l4 2 7 7 7 8 12 13 11 14 9 11 8 11 12 17 8 13 10 16 8 14 2 2 12-1 18-1h27l38 3 25 4 31 7 9 3 15 4 12 5 18 7 25 12 18 10 23 14 15 11 17 13 13 11 15 14 19 19 18 22 9 12 7 10 14 22 8 14 8 16 11 24 6 17 7 21 6 21 4 18 4 30 2 21v49l-3 33-2 10-2 12-7 28-6 20-12 32-13 28-4 7-16 27-12 17-12 16-12 14-7 8-30 30-10 8-12 10-11 8-10 7-15 9-11 7-10 6-19 9-9 5-16 6-19 7-23 7-25 6-25 4-12 2-25 2h-1103l-22-2-31-5-12-3-7-2-20-6-20-7-20-9-16-8-16-9-10-7-13-9-13-10-11-8v-2l-4-2-7-7-8-7-5-5v-2l-4-2-9-10-8-10-10-13-12-17-8-13-9-16-10-21-4-9-6-15-9-28-6-28-2-12-2-15-1-15v-40l3-31 4-23 6-22 5-17 4-11 4-10 9-20 11-21 10-16 8-12 9-12 11-14 12-13 5-6h2v-2l8-7 8-8 14-11 18-14 15-10 17-10 12-6 15-8 29-11 21-7 31-7 20-3 19-2 19-1 2-10 6-18 8-22 13-30 15-30 12-21 11-17 12-18 12-16 11-14 12-14 12-13 15-16 4-2 2-4 8-7 14-13 14-11 11-9h2v-2l16-11 19-13 16-10 17-10 11-6 19-9 15-7 22-9 16-6 11-4 17-5 18-5 15-4 35-7 30-4 19-1 3-1zm12 55-24 1-32 3-29 5-30 7-15 5-18 5-21 8-24 10-29 14-23 13-22 14-14 10-17 13-13 11-11 9-10 10-2 1v2l-3 1v2l-4 2-8 8-7 8-7 7-9 11-10 12-14 19-11 16-15 25-8 14-11 23-10 22-6 17-4 10-5 16-5 18-4 13-9 10-8 4-41 2-26 3-26 6-19 5-27 10-27 13-10 6-14 9-11 8-9 7-14 12-15 14-12 13-11 14-8 11-10 16-9 16-10 21-9 24-6 20-4 21-3 23v54l4 28 6 25 6 20 9 21 8 16 9 17 7 11 14 19 13 15 29 29 17 13 17 12 25 14 20 9 11 5 25 8 22 5 31 5h1113l20-2 32-5 23-6 27-9 21-9 16-8 15-8 20-12 11-8 16-12 15-13 27-27 9-11 8-10 10-13 12-19 10-18 8-16 10-23 11-33 4-17 3-15 3-22 1-15v-46l-2-24-3-19-3-16-2-5-4-16-6-18-9-22-8-16-10-19-15-24-10-13-13-16-14-15-15-15-8-7-14-12-14-10-10-7-22-13-19-10-19-9-25-9-29-8-23-5-25-3-18-1h-31l-30 2-19 1-9-3-6-5-7-12-6-11-15-25-11-18-21-28-11-13-7-8-11-12-4-5-8-7-22-22-11-9-13-11-11-8-15-11-26-16-27-15-22-10-10-5-16-6-21-8-8-3-9-2-10-3-29-7-33-6-32-3-29-1z" fill="#FE8E02"/>
<path transform="translate(618,769)" d="m0 0 7 1 25 14 25 13 33 15 32 13 28 10 34 11 42 11 43 9 39 6 36 4 31 2 28 1h23l44-2 40-4 40-6 44-9 35-9 27-8 40-14 30-12 9-1 7 4 3 6-1 7-5 6-20 14-25 15-27 14-19 9-30 12-36 12-37 10-34 7-41 6-36 3h-59l-29-2-39-5-36-7-29-7-29-9-26-9-29-12-33-16-17-9-17-10-22-14-16-11-21-16-14-11-10-9-8-7-5-6v-6z" fill="#FF9A00"/>
<path transform="translate(875,452)" d="m0 0h31l8 2 5 8 19 74 24 96 3 11 1 1 28-119 14-60 4-9 5-3 5-1h27l9 3 4 7 20 85 22 94 2 6 27-106 20-77 4-8 5-3 4-1h30l4 2 1 2v9l-25 80-17 55-24 77-4 12-4 5-5 2h-35l-5-3-4-6-12-49-20-84-11-46-11 44-22 93-9 38-4 9-4 3-4 1h-33l-6-3-4-6-19-62-35-116-13-43-1-9z" fill="#1A2B3C"/>
<path transform="translate(733,446)" d="m0 0h34l18 3 18 6 12 7 10 9 9 14 5 12 4 17 1 9 1 102 1 15 3 12 7 15 2 4v7l-5 6-20 13h-8l-8-7-7-10-7-13v-2l-5 5-12 11-15 10-17 7-12 3-7 1h-26l-18-4-14-7-11-9-8-10-7-14-3-11-1-7v-20l3-15 6-14 10-13 10-9 16-9 15-5 18-3h29l29 4 16 4-1-33-3-15-7-14-7-6-12-5-9-2-10-1h-16l-20 3-21 6-19 7-6 1-3-1-2-4v-23l3-6 10-6 15-6 22-6z" fill="#1A2B3C"/>
<path transform="translate(1304,445)" d="m0 0h19l22 3 19 5 12 5 8 6 3 5v23l-3 4h-7l-21-8-18-4-10-1h-19l-14 2-13 5-8 7-4 10v14l4 9 2 4 4 2 10 6 18 7 47 15 16 8 13 10 8 10 6 13 3 15v13l-3 15-5 12-9 13-8 8-13 9-16 7-20 5-8 1h-31l-21-3-22-6-12-5-9-6-3-6v-24l3-3h8l21 8 15 4 19 3h27l15-3 12-5 8-7 4-7 1-4v-16l-5-10-7-6-15-7-44-14-16-6-12-6-10-8-7-7-7-11-4-8-3-11-1-14 2-15 5-13 7-10 9-10 13-9 15-7 15-4z" fill="#1A2B3C"/>
<path transform="translate(1362,753)" d="m0 0h31l20 3 13 4 6 4 3 8v18l-3 19-5 19-7 19-9 19-10 15-8 10-12 12-6 3-5-1-1-1v-7l12-31 10-31 4-19v-17l-3-6-8-4-11-2-23-1-34 2-27 3-7-1-1-1v-6l4-5 13-8 16-7 20-6 18-3z" fill="#FF9A00"/>
<path transform="translate(742,584)" d="m0 0h14l22 2 21 4 1 1v19l-2 14-4 11-6 9-8 8-13 8-16 5-6 1h-22l-11-4-8-6-6-9-3-10v-20l4-11 6-8 7-6 12-5 9-2z" fill="#FEFEFE"/>
</svg>
